<?xml version="1.0" encoding="utf-8"?>
<!-- Generator: Adobe Illustrator 19.0.0, SVG Export Plug-In . SVG Version: 6.00 Build 0)  -->
<svg version="1.1" id="Layer_1" xmlns="http://www.w3.org/2000/svg" xmlns:xlink="http://www.w3.org/1999/xlink" x="0px" y="0px"
	 viewBox="0 0 80 80" style="enable-background:new 0 0 80 80;" xml:space="preserve">
<style type="text/css">
	.st0{fill:#FFFFFF;}
</style>
<g>
	<path id="XMLID_3_" class="st0" d="M44.7,33.5c-1.4,0.6-5.9,2.7-7.8,3.3c-0.4,0.1-0.5,0.7-0.1,0.9c1.6,0.4,2.9,0.5,5.6,1.2
		c1.9,0.4,1.7,0,2-1c0.5-1.6,1.1-3.4,1.2-4C45.8,33.2,45.3,33.3,44.7,33.5L44.7,33.5z"/>
	<path class="st0" d="M71.9,35c-1.4-4.3-3.5-8.1-7.8-10.3c-7.2-3.6-15.3-3.4-22.9-3.1c-4.3,0.4-9,0.7-13,3.3
		c-6.2,4.3-6.8,12.3-6.1,18.9c0.4,4.3,1.2,9.1,5.3,11.4c9.3,5.2,21.8,5.2,29.6-1.8c0.9-0.8,2.1-1.4,2.9-2.4c0.6-0.8-2.7-2.9-3.8-4
		c-1.1-1.1-2.5-1.4-4-2.2c-4.7-1.8-9.2,0-14.3-1.1c-3.4-0.7-6.4-3-8.7-5.3c-0.1-0.2-0.1-0.8,0.1-0.9c1.9-1.7,3.3-3.4,6-5.1
		c1.4-0.7,3.3-2.1,4.8-2.4c9.8-3.6,23.7,0.9,25.8,9.9c0.7,3.1,1.1,6.5,1.1,10c0,4-0.7,7.9-3.3,11c-4,4.3-10.5,4.7-15.9,5.1
		c-8.6,0.6-16.5,1.1-24.9-1.6c-2.3-0.7-4-2.5-5.1-4.7c-1-2.1-1.9-4.5-2.4-6.8c-2.1-10.3-1.8-19.5,1.4-28.1c1.6-4.3,8.8-6.2,13.9-7.3
		c11.2-2.5,33.5-1.4,33.5-1.4s-0.4-6.4-0.6-8.8c-11,1.7-33.2,2.1-45.9,7.2c-2.9,1.2-6.2,4-7.6,6.9c-2.5,6.2-3.6,13.1-3.5,19.6
		c0.1,10.1,1.8,24,11.2,29.1c4.9,2.6,10.5,3.5,16.1,3.6H40c6.7-0.2,13.6-1,20.3-2.4c4-1.1,7.3-3.4,9.5-6.6c3.2-4.9,4.4-10.4,4.4-16
		C74.3,44,73.3,39.4,71.9,35z M42.1,54.5c0.1-0.6,0.7-2.4,1.2-4c0.3-1,0.2-1.4,2-1c2.7,0.6,4.1,0.7,5.6,1.2c0.4,0.2,0.2,0.8-0.1,0.9
		c-2,0.6-6.4,2.7-7.8,3.3C42.5,55.1,42,55.1,42.1,54.5z"/>
</g>
</svg>
