<?xml version="1.0" encoding="utf-8"?>
<!-- Generator: Adobe Illustrator 19.0.0, SVG Export Plug-In . SVG Version: 6.00 Build 0)  -->
<svg version="1.1" id="Layer_1" xmlns="http://www.w3.org/2000/svg" xmlns:xlink="http://www.w3.org/1999/xlink" x="0px" y="0px"
	 viewBox="0 0 80 80" style="enable-background:new 0 0 80 80;" xml:space="preserve">
<style type="text/css">
	.st0{fill:#FFFFFF;}
</style>
<g id="g4204" transform="translate(0,2)">
	<path id="path4206" class="st0" d="M7.8,30.5L0,48h5.1l1.5-3.7h7.9L16,48h5.1l-7.8-17.5
		C13.3,30.5,7.8,30.5,7.8,30.5z M10.6,34.7l1.3,3.3l1.3,3.3l-2.6,0l-2.6,0L9.3,38L10.6,34.7L10.6,34.7z"/>
	<path id="path4208" class="st0" d="M45.7,30.5L37.9,48H43l1.5-3.7h7.9l1.5,3.7H59l-7.8-17.5
		C51.2,30.5,45.7,30.5,45.7,30.5z M48.5,34.7l1.3,3.3l1.3,3.3l-2.6,0l-2.6,0l1.3-3.3L48.5,34.7L48.5,34.7z"/>
	<path id="path4210" class="st0" d="M60.4,30.5h5.8l3.7,5.6l3.9-5.6h5.7L72.7,39l7.3,9.1h-5.8
		l-4.2-6l-4.1,6h-6.2l7.5-9.1L60.4,30.5z"/>
	<path id="path4212" class="st0" d="M35.8,23.1l-7,6.8l2.4,2.2l2.3-2.3l0.3,0v13.1
		c0,1.7-1.3,3-3,3h-2.4c-1.7,0-3-1.3-3-3v-1.4h-4.6v1.7c0,3,2.4,5.4,5.4,5.4h6.1c3,0,5.4-2.4,5.4-5.4V29.8l0.2,0l2.6,2.3l2.1-2.2
		L35.8,23.1L35.8,23.1z"/>
	<path id="path4214" class="st0" d="M23.1,40l7-6.8L27.6,31l-2.3,2.3l-0.3,0V20.2c0-1.7,1.3-3,3-3
		h2.4c1.7,0,3,1.3,3,3v1.4h4.6v-1.7c0-3-2.4-5.4-5.4-5.4h-6.1c-3,0-5.4,2.4-5.4,5.4v13.4l-0.2,0L18.3,31l-2.1,2.2L23.1,40L23.1,40z"
		/>
</g>
</svg>
