<?xml version="1.0" encoding="utf-8"?>
<!-- Generator: Adobe Illustrator 19.0.0, SVG Export Plug-In . SVG Version: 6.00 Build 0)  -->
<svg version="1.1" id="Layer_1" xmlns="http://www.w3.org/2000/svg" xmlns:xlink="http://www.w3.org/1999/xlink" x="0px" y="0px"
	 viewBox="0 0 80 80" style="enable-background:new 0 0 80 80;" xml:space="preserve">
<style type="text/css">
	.st0{fill:#FFFFFF;}
</style>
<g id="text3836" transform="scale(1.0052013,0.99482561)">
	<path id="path3841" inkscape:connector-curvature="0" class="st0" d="M39.1,33.3c2.5,0,4.3-0.5,5.6-1.6c1.3-1.1,1.9-2.7,1.9-4.8
		c0-2.1-0.6-3.7-1.9-4.8c-1.3-1.1-3.1-1.7-5.6-1.7h-8.7v12.9L39.1,33.3 M39.6,59.9c3.1,0,5.5-0.7,7.1-2c1.6-1.3,2.4-3.3,2.4-6
		c0-2.6-0.8-4.6-2.4-5.9c-1.6-1.3-3.9-2-7.1-2h-9.2v15.9H39.6 M54.2,38c3.4,1,6,2.8,7.8,5.4c1.8,2.6,2.8,5.9,2.8,9.7
		c0,5.9-2,10.2-5.9,13.1c-4,2.9-10,4.3-18.1,4.3h-26V9.8h23.5c8.4,0,14.5,1.3,18.3,3.8c3.8,2.5,5.7,6.6,5.7,12.2
		c0,3-0.7,5.5-2.1,7.6C58.8,35.5,56.8,37,54.2,38"/>
</g>
</svg>
