<?xml version="1.0" encoding="utf-8"?>
<!-- Generator: Adobe Illustrator 19.0.0, SVG Export Plug-In . SVG Version: 6.00 Build 0)  -->
<svg version="1.1" id="Layer_1" xmlns="http://www.w3.org/2000/svg" xmlns:xlink="http://www.w3.org/1999/xlink" x="0px" y="0px"
	 viewBox="109 -170 298 420" style="enable-background:new 109 -170 298 420;" xml:space="preserve">
<style type="text/css">
	.st0{fill:#FFFFFF;}
</style>
<title>Slice 1</title>
<description>CSS SVG Logo source http://jaspreetchahal.org</description>
<g id="Page_1">
	<g id="Layer_1_1_">
		<path id="Shape" class="st0" d="M342.2-154.3h-24.7l25.7,27.9v13.3h-52.9v-15.5h25.7l-25.7-27.9v-13.3h51.9V-154.3L342.2-154.3z
			 M279.8-154.3h-24.7l25.7,27.9v13.3h-52.9v-15.5h25.7l-25.7-27.9v-13.3h51.9V-154.3L279.8-154.3z M218-153.7h-26.6v24.3H218v16.2
			h-45.6v-56.7H218V-153.7L218-153.7z"/>
		<path class="st0" d="M109.1-87.3l27.1,303.6L257.6,250l121.8-33.8l27.1-303.6H109.1z M356.2,196.9L258,224.1v0.1l-0.1,0l-0.1,0
			v-0.1l-98.2-27.2L136.4-62.5l121.4,0v0h121.6L356.2,196.9z"/>
		<polygon class="st0" points="351.2,-27.9 257.9,-27.9 257.8,-27.9 164.6,-27.9 165.5,-17.9 167.2,1 168,9.4 168.1,9.4 257.8,9.4 
			257.9,9.4 310.5,9.4 307.1,47.5 257.8,47.5 257.8,47.5 213.5,47.5 214.4,57.5 216.1,76.4 216.8,84.7 217,84.7 257.8,84.7 
			257.8,84.7 303.8,84.7 299.4,133 257.9,144.2 257.9,144.2 257.9,144.3 216.4,133.1 213.7,103.4 193.6,103.4 176.4,103.4 
			181.6,161.8 257.8,183 258,182.9 258,182.9 334.2,161.8 334.8,155.5 341.1,84.7 341.1,84.7 341.1,84.5 341.3,83.2 341.3,83.2 
			350.3,-17.9 		"/>
	</g>
</g>
</svg>
