<svg id="Layer_1" data-name="Layer 1" xmlns="http://www.w3.org/2000/svg" viewBox="0 0 63.01 71.15">
  <defs>
    <style>
      .cls-1 {
        fill: #fff;
      }
    </style>
  </defs>
  <title>drupal-white</title>
  <g>
    <path class="cls-1" d="M38.16,48.05A11.23,11.23,0,1,0,49.39,59.28,11.23,11.23,0,0,0,38.16,48.05Z" transform="translate(-8.52 -4)"/>
    <path class="cls-1" d="M52.13,45.91a19.33,19.33,0,0,1-2.92,29.24A32.48,32.48,0,0,0,69.56,56.9c4.74-11.66.33-20.44-7.09-28.4a14.64,14.64,0,0,1,.36,3.19A14.82,14.82,0,0,1,52.13,45.91Z" transform="translate(-8.52 -4)"/>
    <path class="cls-1" d="M39.45,31.69A8.59,8.59,0,1,0,48,23.11,8.58,8.58,0,0,0,39.45,31.69Z" transform="translate(-8.52 -4)"/>
    <path class="cls-1" d="M23.37,71.73A19.34,19.34,0,0,1,35.86,40.08,14.78,14.78,0,0,1,48,16.9,14.42,14.42,0,0,1,50,17,112.93,112.93,0,0,1,36.54,4c2,20.28-18.46,12.91-26,31.6C5.46,48.13,10,63.63,23.37,71.73Z" transform="translate(-8.52 -4)"/>
  </g>
</svg>
