<?xml version="1.0" encoding="utf-8"?>
<!-- Generator: Adobe Illustrator 19.0.0, SVG Export Plug-In . SVG Version: 6.00 Build 0)  -->
<svg version="1.1" id="Layer_1" xmlns="http://www.w3.org/2000/svg" xmlns:xlink="http://www.w3.org/1999/xlink" x="0px" y="0px"
	 viewBox="0 0 80 80" style="enable-background:new 0 0 80 80;" xml:space="preserve">
<style type="text/css">
	.st0{fill:#FFFFFF;}
</style>
<g id="XMLID_3_">
	<path id="XMLID_1_" class="st0" d="M78.5,36.4L43.6,1.5c-2-2-5.3-2-7.3,0L29,8.8l9.2,9.2c2.1-0.7,4.6-0.2,6.3,1.5
		c1.7,1.7,2.2,4.2,1.5,6.3l8.9,8.9c2.1-0.7,4.6-0.3,6.3,1.5c2.4,2.4,2.4,6.3,0,8.7c-2.4,2.4-6.3,2.4-8.7,0c-1.8-1.8-2.2-4.4-1.3-6.7
		l-8.3-8.3v21.8c0.6,0.3,1.1,0.7,1.6,1.2c2.4,2.4,2.4,6.3,0,8.7c-2.4,2.4-6.3,2.4-8.7,0c-2.4-2.4-2.4-6.3,0-8.7c0.6-0.6,1.3-1,2-1.3
		v-22c-0.7-0.3-1.4-0.7-2-1.3c-1.8-1.8-2.2-4.5-1.3-6.7l-9.1-9.1l-24,23.9c-2,2-2,5.3,0,7.3l34.9,34.9c2,2,5.3,2,7.3,0l34.8-34.8
		C80.5,41.7,80.5,38.4,78.5,36.4z"/>
</g>
</svg>
