<?xml version="1.0" encoding="utf-8"?>
<!-- Generator: Adobe Illustrator 19.0.0, SVG Export Plug-In . SVG Version: 6.00 Build 0)  -->
<svg version="1.1" id="Layer_1" xmlns="http://www.w3.org/2000/svg" xmlns:xlink="http://www.w3.org/1999/xlink" x="0px" y="0px"
	 viewBox="0 0 80 80" style="enable-background:new 0 0 80 80;" xml:space="preserve">
<style type="text/css">
	.st0{fill:#FFFFFF;}
</style>
<path id="XMLID_5_" class="st0" d="M49.7,77.2l0.8-12.7l2.1-3.6c0,0-4.8,2-12.8,2c-8,0-12.7-1.9-12.7-1.9l2.4,3.9l0.8,12.3
	c0,1.3,4.3,2.4,9.7,2.4C45.3,79.6,49.7,78.5,49.7,77.2"/>
<path id="XMLID_9_" class="st0" d="M47.3,18.1l1.6-6.3l8.8-9.3l-2.3-2L46,10.4l-1.9,7.5c-1.3,0-2.7-0.1-4.2-0.1
	c-9.8,0-17.8,1.1-17.8,2.5c0,1.4,8,2.5,17.8,2.5c9.8,0,17.8-1.1,17.8-2.5C57.8,19.3,53.5,18.5,47.3,18.1z M46.4,21.6
	c0,0-0.3,0.1-1.4,0.1c-1,0-1.7,0-2-0.3c-0.1-0.1-0.1-0.2-0.1-0.3c0-0.2,0.1-0.3,0.3-0.4l0.2,0.2c-0.1,0-0.1,0.1-0.1,0.1
	c0,0.1,1,0.2,1.8,0.2c0.8,0,1.8-0.1,1.8-0.2c0,0-0.1-0.1-0.2-0.1l0.2-0.2c0.2,0.1,0.4,0.2,0.4,0.4C47.1,21.5,46.7,21.6,46.4,21.6z"
	/>
<path id="XMLID_2_" class="st0" d="M57.7,2.5c0.2-0.3-0.1-0.9-0.8-1.5c-0.6-0.6-1.3-0.8-1.6-0.5c-0.2,0.3,0.1,0.9,0.8,1.5
	C56.8,2.5,57.5,2.8,57.7,2.5"/>
<path id="XMLID_1_" class="st0" d="M49.3,46.3c-0.2-2,4.4-4.9,3.2-5c-2.6,0.1-3.8,3-5.1,6c-0.5,1.1-2.1,5.7-3.1,5.2
	c-1.1-0.6,1.4-4.4,2-6.7c-0.8,0.6-3.7,2.8-4.4,0.7c-1.2,1-3.7,1.6-3.4-1.1c-0.6,1.1-2.1,2.7-3.8,2c-2.2-0.9,1.3-8,2.2-7.6
	c0.9,0.4-0.2,2-0.5,2.6c-0.6,1.4-1.3,3.1-0.8,3.5c0.8,0.6,3-2.3,3-2.4c0.4-0.5,1.6-4.1,2.5-3.7c0.9,0.4-2.3,5.1-1.1,6
	c0.2,0.2,1.3-0.1,1.9-0.8c0.4-0.4,0.3-1.4,1.6-4.6c1.3-3.2,2.5-7.1,3.4-6.8c0.9,0.3,0.2,2.3-0.2,3.1c-1.5,3.6-4.2,9.4-2.9,9
	c1.3-0.4,1.9-0.5,3.1-1.9c1.2-1.4,1.2-3.8,2-3.8c0.8,0.1,0.7,0.8,0.5,1.4c0.8-0.9,3.8-2.9,4.5-0.9c0.9,2.3-4.3,5.6-3,5.4
	c1.3-0.2,3.3-1.5,4.2-2.6l2.4-21.5c0,0-2.4,2-17.7,2c-15.3,0-17.5-2-17.5-2l2,19.6c1.1-3.1,3.6-9.3,7.7-9.1c1.8,0.1,4.3,3.6,2.2,3.8
	c-0.9,0.1-1-1.8-2-2c-0.8-0.2-1.8,0.4-2.5,1.1c-1.4,1.3-4.3,6.6-3.9,9.2c0.5,3.4,4.6-1.2,5.3-2.5c0.5-0.9,0.8-3.7,1.9-3.5
	c1.1,0.3-0.1,3.2-0.9,5.7c-0.9,2.9-1.3,5.9-2.4,5.5c-1.1-0.3,0.7-4.1,0.6-4.7c-1,1-2.9,3.4-5.4,2.2l1.3,12.2c0,0,3.4,2.7,13.5,2.7
	c10.1,0,13.6-2.6,13.6-2.6l1.6-14.1C53.6,46.6,49.5,48.8,49.3,46.3"/>
</svg>
