<?xml version="1.0" encoding="utf-8"?>
<!-- Generator: Adobe Illustrator 19.0.0, SVG Export Plug-In . SVG Version: 6.00 Build 0)  -->
<svg version="1.1" id="Layer_1" xmlns="http://www.w3.org/2000/svg" xmlns:xlink="http://www.w3.org/1999/xlink" x="0px" y="0px"
	 viewBox="109 -170 298 420" style="enable-background:new 109 -170 298 420;" xml:space="preserve">
<style type="text/css">
	.st0{fill:#FFFFFF;}
</style>
<title>Slice 1</title>
<description>CSS SVG Logo source http://jaspreetchahal.org</description>
<g id="Page_1">
	<g id="Group">
		<path class="st0" d="M109.3-87.4l27.1,303.6L257.9,250l121.8-33.8l27.1-303.6H109.3z M356.5,196.9L258.6,224v0.1l-0.3-0.1
			l-0.3,0.1V224l-97.9-27.1L137-62.5H258h0.5h121L356.5,196.9z"/>
		<path id="Shape_4_" class="st0" d="M137-169.9h18.9v18.7h17.3v-18.7h18.9v56.6h-18.9v-19h-17.3v19H137V-169.9L137-169.9z"/>
		<path id="Shape_5_" class="st0" d="M217-151.1h-16.7v-18.8h52.3v18.8H236v37.8H217L217-151.1L217-151.1L217-151.1z"/>
		<path id="Shape_6_" class="st0" d="M260.9-169.9h19.7l12.1,19.9l12.1-19.9h19.7v56.6h-18.8v-28.1l-13,20.1h-0.3l-13-20.1v28.1
			h-18.5L260.9-169.9L260.9-169.9z"/>
		<path id="Shape_7_" class="st0" d="M334.1-169.9H353v37.9h26.6v18.7h-45.5L334.1-169.9L334.1-169.9z"/>
		<polygon class="st0" points="258,-25.3 257.9,-25.3 164.7,-25.3 165.6,-15.3 174.7,87.3 257.9,87.3 258,87.3 303.8,87.3 
			299.4,135.6 257.9,146.8 257.9,146.8 257.9,146.8 216.4,135.6 213.8,105.9 193.6,105.9 176.4,105.9 181.6,164.4 257.9,185.6 
			258,185.5 258,185.5 334.2,164.4 334.8,158.1 343.6,60.1 344.5,50.1 334.4,50.1 258,50.1 257.9,50.1 208.8,50.1 205.4,11.9 
			257.9,11.9 258,11.9 347.7,11.9 347.9,11.9 348.6,3.6 350.3,-15.3 351.2,-25.3 		"/>
	</g>
</g>
</svg>
