<?xml version="1.0" encoding="utf-8"?>
<!-- Generator: Adobe Illustrator 19.0.0, SVG Export Plug-In . SVG Version: 6.00 Build 0)  -->
<svg version="1.1" id="Layer_1" xmlns="http://www.w3.org/2000/svg" xmlns:xlink="http://www.w3.org/1999/xlink" x="0px" y="0px"
	 viewBox="0 0 80 80" style="enable-background:new 0 0 80 80;" xml:space="preserve">
<style type="text/css">
	.st0{fill:#FFFFFF;}
</style>
<path id="XMLID_13_" class="st0" d="M11.7,12.5h56.6v55H11.7V12.5z M9.1,70.1h61.7V9.9H9.1V70.1z M49.6,31.4c0-0.2,0.1-0.3,0.3-0.3
	h4c0.2,0,0.3,0.1,0.3,0.3v20.3c0,0.2,0,0.3-0.3,0.3h-4c-0.3,0-0.3-0.1-0.3-0.3L49.6,31.4L49.6,31.4L49.6,31.4z M49.3,25.5
	c0-1.6,1.2-2.6,2.6-2.6c1.6,0,2.6,1.1,2.6,2.6c0,1.7-1.1,2.6-2.7,2.6C50.4,28.2,49.3,27.2,49.3,25.5z M37.7,39.8
	c-0.7-2.9-2.4-9.1-3.1-12.1h0c-0.5,3-1.9,8.1-3,12.1H37.7L37.7,39.8z M30.6,44l-2,7.7c0,0.2-0.1,0.3-0.4,0.3h-3.8
	c-0.3,0-0.3-0.1-0.3-0.4L31.4,26c0.1-0.5,0.2-0.9,0.3-2.1c0-0.2,0.1-0.3,0.2-0.3h5.4c0.2,0,0.3,0,0.3,0.3l8.2,27.7
	c0,0.2,0,0.3-0.2,0.3h-4.3c-0.2,0-0.3,0-0.4-0.2L38.8,44L30.6,44L30.6,44z"/>
</svg>
