<?xml version="1.0" encoding="utf-8"?>
<!-- Generator: Adobe Illustrator 19.0.0, SVG Export Plug-In . SVG Version: 6.00 Build 0)  -->
<svg version="1.1" id="Layer_1" xmlns="http://www.w3.org/2000/svg" xmlns:xlink="http://www.w3.org/1999/xlink" x="0px" y="0px"
	 viewBox="88 -88 256 256" style="enable-background:new 88 -88 256 256;" xml:space="preserve">
<style type="text/css">
	.st0{fill:#FFFFFF;}
</style>
<path id="XMLID_2_" class="st0" d="M119-57v194h194V-57H119z M224.6,94.3c0,18.9-11.1,27.5-27.2,27.5c-14.5,0-23-7.6-27.4-16.7l0,0
	l0,0l0,0l14.9-9c2.9,5.1,5.5,9.4,11.7,9.4c6,0,9.8-2.3,9.8-11.4V32h18.3L224.6,94.3L224.6,94.3z M267.7,121.8
	c-16.9,0-27.9-8.1-33.2-18.6l0,0l14.9-8.6c3.9,6.4,9,11.1,18,11.1c7.6,0,12.4-3.8,12.4-9c0-6.2-4.9-8.5-13.3-12.1l-4.5-2
	c-13.2-5.6-21.9-12.7-21.9-27.5c0-13.6,10.4-24.1,26.7-24.1c11.6,0,19.9,4,25.9,14.5l-14.2,9.1c-3.1-5.6-6.5-7.8-11.7-7.8
	c-5.3,0-8.7,3.4-8.7,7.8c0,5.5,3.4,7.7,11.2,11.1l4.5,2c15.5,6.7,24.3,13.4,24.3,28.6C297.9,112.8,285,121.8,267.7,121.8z"/>
</svg>
