<svg xmlns="http://www.w3.org/2000/svg" viewBox="0 0 190 190">
  <defs>
    <style>
      .cls-1 {
        fill: #fff;
      }

      .cls-2 {
        fill: #bae83f;
      }

      .cls-3 {
        fill: #3e64ed;
      }

      .cls-4 {
        fill: #fdaa30;
      }

      .cls-5 {
        fill: #f95452;
      }
    </style>
  </defs>
  <title>logo-final-fullspace</title>
  <g id="Layer_2" data-name="Layer 2">
    <rect class="cls-1" width="190" height="190"/>
  </g>
  <g id="Layer_1" data-name="Layer 1">
    <path id="c-bot" d="M175,145a30,30,0,0,1-60,0V100H100v45a45,45,0,0,0,90,0"/>
    <path id="c-top" d="M190,45a45,45,0,0,0-90,0V90h15V45a30,30,0,0,1,60,0"/>
    <path id="b-bot" d="M45,15a30,30,0,0,1,0,60H0V90H45A45,45,0,0,0,45,0"/>
    <path id="b-top" d="M45,190a45,45,0,0,0,0-90H0v15H45a30,30,0,0,1,0,60"/>
    <circle id="circle4" class="cls-2" cx="45" cy="145" r="20"/>
    <circle id="circle3" class="cls-3" cx="145" cy="145" r="20"/>
    <circle id="circle2" class="cls-4" cx="145" cy="45" r="20"/>
    <circle id="circle1" class="cls-5" cx="45" cy="45" r="20"/>
  </g>
</svg>
