<?xml version="1.0" encoding="utf-8"?>
<!-- Generator: Adobe Illustrator 19.0.0, SVG Export Plug-In . SVG Version: 6.00 Build 0)  -->
<svg version="1.1" id="Layer_1" xmlns="http://www.w3.org/2000/svg" xmlns:xlink="http://www.w3.org/1999/xlink" x="0px" y="0px"
	 viewBox="205 -213 500 500" style="enable-background:new 205 -213 500 500;" xml:space="preserve">
<style type="text/css">
	.st0{fill:#FDAA30;}
	.st1{fill:#3E64ED;}
	.st2{fill:#F95452;}
	.st3{fill:#BAE83F;}
</style>
<title>logo7-bg</title>
<g>
	<circle class="st0" cx="567.2" cy="-75.1" r="43.9"/>
	<circle class="st1" cx="567.2" cy="149.1" r="43.9"/>
	<circle class="st2" cx="342.9" cy="149.1" r="43.9"/>
	<ellipse class="st3" cx="342.9" cy="-75" rx="43.9" ry="43.9"/>
	<path d="M634.2,105.3v44l0,0c0,37.1-30.1,67.1-67.1,67.1c-37.1,0-67.1-30.1-67.1-67.1V47.9h-34.2v101.4
		c-0.6,56,44.4,101.9,100.4,102.4s101.9-44.4,102.4-100.4c0-0.7,0-1.3,0-2v-44H634.2z"/>
	<path d="M299-8.1h44c37.1,0,67.1-30.1,67.1-67.1s-30.1-67.1-67.2-67.1l-101.3-0.1v-34.2H343c56,0.6,101,46.4,100.4,102.4
		C442.9-19,398.2,25.7,343,26.2h-44V-8.1z"/>
	<path d="M634.2-31.2v-44l0,0c0-37.1-30.1-67.1-67.1-67.1c-37.1,0-67.1,30.1-67.1,67.1V26.2h-34.2V-75.1
		c-0.6-56,44.4-101.9,100.4-102.4s101.9,44.4,102.4,100.4c0,0.7,0,1.3,0,2v44L634.2-31.2z"/>
	<path d="M299,82.1h44c37.1,0,67.1,30.1,67.1,67.1S380,216.3,343,216.3l-101.4,0.1v34.2H343c56,0,101.4-45.4,101.4-101.5
		c0-56-45.4-101.4-101.4-101.4h-44V82.1z"/>
</g>
</svg>
