<?xml version="1.0" encoding="utf-8"?>
<!-- Generator: Adobe Illustrator 19.0.0, SVG Export Plug-In . SVG Version: 6.00 Build 0)  -->
<svg version="1.1" id="Layer_1" xmlns="http://www.w3.org/2000/svg" xmlns:xlink="http://www.w3.org/1999/xlink" x="0px" y="0px"
	 viewBox="0 0 80 80" style="enable-background:new 0 0 80 80;" xml:space="preserve">
<style type="text/css">
	.st0{fill-rule:evenodd;clip-rule:evenodd;fill:#FFFFFF;}
	.st1{fill:#FFFFFF;}
</style>
<path id="XMLID_8_" class="st0" d="M53.5,10.5c-0.3,0-0.6,0-0.8,0.1v0h0c0.2,0.3,0.5,0.6,0.7,0.8c0.2,0.3,0.3,0.7,0.5,1c0,0,0,0,0,0
	c0.3-0.2,0.4-0.5,0.4-1c-0.1-0.1-0.1-0.3-0.2-0.4C53.9,10.8,53.7,10.7,53.5,10.5"/>
<g id="XMLID_10_">
	<path id="XMLID_7_" class="st1" d="M21,50.9h-2.8c-0.1-4.8-0.4-9.3-0.8-13.5h0L13,50.9h-2.2L6.5,37.4h0c-0.3,4-0.5,8.5-0.6,13.5
		H3.3c0.2-6,0.6-11.7,1.3-16.9h3.5l4.1,12.4h0l4.1-12.4h3.4C20.4,40.1,20.8,45.8,21,50.9"/>
	<path id="XMLID_6_" class="st1" d="M33.2,38.4c-1.2,6.3-2.7,10.8-4.6,13.6c-1.5,2.2-3.1,3.3-4.8,3.3c-0.5,0-1-0.1-1.7-0.4v-1.5
		c0.3,0,0.7,0.1,1.2,0.1c0.8,0,1.5-0.2,2-0.7c0.6-0.6,0.9-1.2,0.9-1.9c0-0.5-0.2-1.4-0.7-2.9l-3.1-9.7h2.8l2.2,7.2
		c0.5,1.6,0.7,2.8,0.6,3.4c1.2-3.3,2.1-6.8,2.6-10.7H33.2z"/>
	<polygon id="XMLID_5_" class="st1" points="71,50.9 62.9,50.9 62.9,33.9 65.6,33.9 65.6,48.8 71,48.8 	"/>
	<path id="XMLID_13_" class="st0" d="M60.8,51.3l-3.1-1.5c0.3-0.2,0.5-0.5,0.8-0.8c1.3-1.6,2-3.9,2-6.9c0-5.6-2.2-8.4-6.6-8.4
		c-2.2,0-3.8,0.7-5,2.1c-1.3,1.6-2,3.8-2,6.9c0,3,0.6,5.2,1.8,6.5c1.1,1.3,2.7,1.9,4.8,1.9c0.8,0,1.5-0.1,2.2-0.3l4.1,2.4L60.8,51.3
		z M50.7,47.5c-0.7-1.1-1-2.9-1-5.3c0-4.3,1.3-6.4,3.9-6.4c1.4,0,2.3,0.5,3,1.5c0.7,1.1,1,2.9,1,5.3c0,4.3-1.3,6.4-3.9,6.4
		C52.4,49,51.4,48.5,50.7,47.5"/>
	<path id="XMLID_2_" class="st1" d="M45.7,46.2c0,1.4-0.5,2.6-1.6,3.5c-1.1,0.9-2.5,1.4-4.2,1.4c-1.7,0-3.3-0.5-4.8-1.6l0.7-1.5
		c1.3,0.7,2.5,1,3.6,1c1,0,1.8-0.2,2.4-0.7c0.6-0.5,0.9-1.1,0.9-1.9c0-1-0.7-1.9-2-2.6c-1.2-0.7-3.6-2-3.6-2
		c-1.3-0.9-1.9-1.9-1.9-3.6c0-1.4,0.5-2.5,1.4-3.3c1-0.8,2.2-1.3,3.7-1.3c1.6,0,3,0.4,4.3,1.3L44,36.4c-1.1-0.5-2.2-0.7-3.3-0.7
		c-0.9,0-1.5,0.2-2,0.6c-0.5,0.4-0.8,1-0.8,1.6c0,1,0.7,1.9,2,2.6c1.2,0.7,3.6,2,3.6,2C45,43.5,45.7,44.5,45.7,46.2"/>
	<path id="XMLID_1_" class="st0" d="M74.4,28.3c-1.6,0-2.9,0.1-4,0.6c-0.3,0.1-0.8,0.1-0.8,0.5c0.2,0.2,0.2,0.4,0.3,0.7
		c0.2,0.4,0.7,1,1.1,1.2c0.4,0.3,0.9,0.7,1.3,0.9c0.8,0.5,1.7,0.8,2.5,1.3c0.5,0.3,0.9,0.7,1.4,1c0.2,0.2,0.4,0.4,0.7,0.5v-0.1
		c-0.1-0.2-0.2-0.4-0.3-0.7c-0.2-0.2-0.4-0.4-0.6-0.6c-0.6-0.8-1.3-1.5-2.1-2.1c-0.7-0.5-2.1-1.1-2.4-1.8c0,0,0,0,0,0
		c0.4,0,1-0.2,1.4-0.3c0.7-0.2,1.3-0.1,2-0.3c0.3-0.1,0.7-0.2,1-0.3v-0.2c-0.4-0.4-0.6-0.9-1-1.2c-1-0.9-2.2-1.8-3.4-2.5
		c-0.6-0.4-1.5-0.7-2.1-1c-0.2-0.1-0.7-0.2-0.8-0.4c-0.4-0.4-0.6-1-0.8-1.6c-0.6-1.1-1.2-2.4-1.7-3.6c-0.4-0.8-0.6-1.6-1-2.3
		c-2.1-3.5-4.4-5.6-7.9-7.6c-0.8-0.4-1.7-0.6-2.6-0.8c-0.5,0-1-0.1-1.5-0.1c-0.3-0.1-0.7-0.5-0.9-0.7c-1.2-0.7-4.2-2.3-5-0.2
		c-0.6,1.3,0.8,2.6,1.3,3.3c0.3,0.5,0.8,1,1,1.5c0.1,0.3,0.2,0.7,0.3,1.1c0.3,0.9,0.6,1.9,1.1,2.7c0.2,0.4,0.5,0.9,0.8,1.3
		c0.2,0.2,0.5,0.3,0.5,0.7c-0.3,0.4-0.3,1-0.5,1.5c-0.7,2.3-0.4,5.2,0.6,6.9c0.3,0.5,1.1,1.6,2.1,1.2c0.9-0.4,0.7-1.5,1-2.6
		c0.1-0.2,0-0.4,0.1-0.6v0c0.3,0.6,0.6,1.1,0.8,1.7c0.6,1,1.7,2,2.7,2.7c0.5,0.4,0.9,1,1.5,1.2v-0.1h0c-0.1-0.2-0.3-0.3-0.5-0.4
		c-0.4-0.4-0.8-0.8-1.1-1.2c-0.9-1.1-1.6-2.4-2.3-3.7c-0.3-0.6-0.6-1.3-0.9-2c-0.1-0.2-0.1-0.6-0.3-0.7c-0.3,0.4-0.8,0.8-1,1.4
		c-0.4,0.9-0.4,2-0.6,3.1c-0.1,0,0,0-0.1,0c-0.7-0.2-0.9-0.8-1.1-1.4c-0.6-1.5-0.7-3.8-0.2-5.5c0.1-0.4,0.8-1.8,0.5-2.2
		c-0.1-0.4-0.5-0.6-0.8-0.9c-0.3-0.4-0.6-0.9-0.7-1.3c-0.5-1.1-0.7-2.4-1.3-3.6c-0.2-0.5-0.7-1.1-1-1.6c-0.4-0.6-0.8-0.9-1.1-1.6
		c-0.1-0.2-0.2-0.6-0.1-0.8c0-0.2,0.1-0.2,0.3-0.3c0.3-0.2,1,0.1,1.3,0.2c0.8,0.3,1.4,0.6,2,1c0.3,0.2,0.6,0.6,1,0.7h0.4
		c0.7,0.1,1.4,0,2,0.2c1.1,0.3,2.1,0.9,2.9,1.4c2.7,1.7,4.9,4.1,6.4,7c0.2,0.5,0.3,0.9,0.6,1.4c0.4,1,1,2,1.4,3
		c0.4,1,0.8,1.9,1.5,2.7c0.3,0.4,1.5,0.7,2.1,0.9c0.4,0.2,1,0.3,1.4,0.6c0.7,0.4,1.4,0.9,2,1.4C73.3,27.4,74.3,27.9,74.4,28.3"/>
</g>
</svg>
