<svg xmlns="http://www.w3.org/2000/svg" viewBox="0 0 80 80">
  <defs>
    <style>
      .cls-1 {
        fill: none;
      }

      .cls-2 {
        fill: #fff;
      }
    </style>
  </defs>
  <title>opencv-white</title>
  <g id="Layer_2" data-name="Layer 2">
    <rect class="cls-1" width="80" height="80"/>
  </g>
  <g id="Layer_1" data-name="Layer 1">
    <g id="g843">
      <g id="red">
        <path id="cv_element" data-name="cv element" class="cls-2" d="M31.07,33.9a16.63,16.63,0,1,1,16.65,0l-5-8.68a6.61,6.61,0,1,0-6.62,0Z" transform="translate(0 0)"/>
      </g>
      <g id="blue">
        <path class="cls-2" d="M66.72,37.93a16.65,16.65,0,1,1-16.65,0l5,8.68a6.62,6.62,0,1,0,9,2.43,6.56,6.56,0,0,0-2.42-2.43Z" transform="translate(0 0)"/>
      </g>
      <g id="green">
        <path class="cls-2" d="M37.4,52.35a16.66,16.66,0,1,1-8.33-14.42l-5,8.68a6.62,6.62,0,1,0,3.31,5.74Z" transform="translate(0 0)"/>
      </g>
    </g>
  </g>
</svg>
