<?xml version="1.0" encoding="utf-8"?>
<!-- Generator: Adobe Illustrator 19.0.0, SVG Export Plug-In . SVG Version: 6.00 Build 0)  -->
<svg version="1.1" id="Layer_1" xmlns="http://www.w3.org/2000/svg" xmlns:xlink="http://www.w3.org/1999/xlink" x="0px" y="0px"
	 viewBox="0 0 80 80" style="enable-background:new 0 0 80 80;" xml:space="preserve">
<style type="text/css">
	.st0{fill:#FFFFFF;}
</style>
<path class="st0" d="M11.7,12.5h56.6v55H11.7V12.5z M9.1,70.1h61.7V9.9H9.1V70.1z M50.8,34.6c-2,0-2.7,1-2.7,1.9
	c0,0.9,0.5,1.6,3.2,3c4,2,5.3,3.8,5.3,6.6c0,4.1-3.1,6.3-7.4,6.3c-2.2,0-4.2-0.5-5.3-1.1c-0.2-0.1-0.2-0.2-0.2-0.4v-3.8
	c0-0.3,0.1-0.3,0.3-0.2c1.6,1.1,3.5,1.5,5.2,1.5c2,0,2.9-0.9,2.9-2c0-0.9-0.6-1.7-3.2-3.1c-3.6-1.7-5.2-3.5-5.2-6.5
	c0-3.3,2.6-6.1,7.1-6.1c2.2,0,3.8,0.3,4.6,0.7c0.2,0.1,0.3,0.3,0.3,0.5v3.5c0,0.2-0.1,0.3-0.4,0.3C54.1,35,52.4,34.6,50.8,34.6
	L50.8,34.6z M28.6,37.7c0.6,0,1.1,0,2.1,0c3,0,5.8-1.1,5.8-5.1c0-3.3-2-4.9-5.5-4.9c-1,0-2,0-2.5,0.1L28.6,37.7L28.6,37.7z M24.1,24
	c0-0.2,0.4-0.3,0.6-0.3c1.6-0.1,4.1-0.1,6.6-0.1c7.1,0,9.9,3.9,9.9,8.9c0,6.5-4.7,9.3-10.5,9.3c-1,0-1.3,0-2,0v9.9
	c0,0.2-0.1,0.3-0.3,0.3h-3.9c-0.2,0-0.3-0.1-0.3-0.3L24.1,24L24.1,24z"/>
</svg>
