<?xml version="1.0" encoding="utf-8"?>
<!-- Generator: Adobe Illustrator 19.0.0, SVG Export Plug-In . SVG Version: 6.00 Build 0)  -->
<svg version="1.1" id="Layer_1" xmlns="http://www.w3.org/2000/svg" xmlns:xlink="http://www.w3.org/1999/xlink" x="0px" y="0px"
	 viewBox="0 0 80 80" style="enable-background:new 0 0 80 80;" xml:space="preserve">
<style type="text/css">
	.st0{fill:#FFFFFF;}
</style>
<g>
	<path id="XMLID_6_" class="st0" d="M60.5,34.6c-1.4-0.2-2.8,0-4.2,0c-0.4,2.6-0.9,5.2-1.3,7.9c1.4-0.1,2.6-0.1,3.9-0.2
		c1.4-0.2,2.6-0.8,3.2-2.1c0.4-0.8,0.6-1.8,0.7-2.7C63,35.7,62.3,34.8,60.5,34.6z"/>
	<path id="XMLID_5_" class="st0" d="M25.3,34.6c-1.1-0.1-2.2-0.1-3.3-0.1c-0.4,0-0.8,0-1.2,0c-0.4,2.6-0.9,5.2-1.3,7.9
		c1.6-0.1,3.1,0.1,4.5-0.3c1.4-0.4,2.4-1.2,2.8-2.6c0.2-0.8,0.4-1.6,0.5-2.4C27.4,35.7,26.7,34.8,25.3,34.6z"/>
	<path class="st0" d="M40,19.8C18.6,19.8,1.3,28.8,1.3,40S18.6,60.2,40,60.2S78.7,51.2,78.7,40S61.4,19.8,40,19.8z M29,44.5
		c-1.6,1.3-3.5,2-5.6,1.9c-1.5,0-3,0-4.5,0c-0.4,0-0.5,0.1-0.6,0.5c-0.3,1.6-0.6,3.1-0.9,4.7c0,0.1-0.2,0.4-0.4,0.4
		c-1.5,0-3,0-4.5,0c-0.1,0-0.1,0-0.2-0.1c0.2-1,0.4-2,0.6-3c1.2-6,2.4-12,3.5-18c0.1-0.4,0.2-0.5,0.6-0.5c3,0,6,0,8.9,0
		c1,0,1.9,0.2,2.8,0.5c2.3,0.7,3.6,2.2,3.8,4.5C33,39.1,31.9,42.1,29,44.5z M43.2,46.4c-0.1,0-0.3,0-0.5,0c0.3-1.7,0.6-3.2,0.9-4.8
		c0.3-1.8,0.7-3.5,1-5.3c0-0.1,0-0.2,0-0.2c0.1-1.2-0.2-1.5-1.4-1.5c-1.2,0-2.5,0-3.7,0c-0.4,0-0.5,0.1-0.6,0.5
		c-0.7,3.7-1.5,7.4-2.2,11c0,0.2-0.1,0.4-0.4,0.4c-1.5,0-3,0-4.5,0c0,0-0.1,0-0.2-0.1c0.1-0.7,0.3-1.4,0.4-2.1
		c1.2-6.3,2.5-12.6,3.7-18.9c0-0.2,0.1-0.4,0.4-0.4c1.5,0,3,0,4.5,0c0.1,0,0.1,0,0.2,0.1c-0.3,1.8-0.7,3.6-1,5.5c0.3,0,0.5,0,0.6,0
		c1.5,0,3.1,0,4.6,0.1c1,0,2,0.3,2.9,0.8c1.5,0.8,2.2,2.3,1.9,4c-0.6,3.5-1.2,7.1-1.8,10.6c-0.1,0.3-0.2,0.5-0.6,0.5
		C46.2,46.4,44.7,46.4,43.2,46.4z M63.3,45.3c-1.3,0.7-2.7,1.1-4.2,1.1c-1.6,0-3.1,0-4.7,0c-0.3,0-0.5,0.1-0.6,0.4
		c-0.3,1.5-0.6,3-0.8,4.6c-0.1,0.4-0.2,0.6-0.7,0.6c-1.3,0-2.6,0-3.9,0c-0.2,0-0.3,0-0.6,0c0.2-0.9,0.3-1.7,0.5-2.6
		c1.1-5.8,2.3-11.6,3.4-17.4c0.1-0.5,0.1-1.2,0.4-1.4c0.3-0.3,1-0.1,1.5-0.1c2.6,0,5.1,0,7.7,0c1,0,2.1,0.2,3,0.5
		c2.2,0.6,3.6,2.2,3.8,4.5C68.6,39.2,67,43.2,63.3,45.3z"/>
</g>
</svg>
