<?xml version="1.0" encoding="utf-8"?>
<!-- Generator: Adobe Illustrator 19.0.0, SVG Export Plug-In . SVG Version: 6.00 Build 0)  -->
<svg version="1.1" id="Layer_1" xmlns="http://www.w3.org/2000/svg" xmlns:xlink="http://www.w3.org/1999/xlink" x="0px" y="0px"
	 viewBox="0 0 80 80" style="enable-background:new 0 0 80 80;" xml:space="preserve">
<style type="text/css">
	.st0{fill:#FFFFFF;}
</style>
<path id="XMLID_4_" class="st0" d="M49.4,0.8c-6.6-1.1-13.5-1-19,0C22.3,2.2,21,5.2,21,10.7V18h19v2H20.6h-7.2
	c-5.6,0-10.5,3.5-12,9.9c-1.8,7.3-1.8,11.8,0,19.4C2.7,54.9,6,59,11.6,59H18v-8.6C18,44.1,23.7,39,30.3,39h19.3
	c5.4,0,9.5-4.8,9.5-10.1V10.7C59,5.5,54.7,1.6,49.4,0.8z M29,13.1c-2,0-3.6-1.6-3.6-3.6c0-2,1.6-3.6,3.6-3.6c2,0,3.6,1.6,3.6,3.6
	C32.7,11.5,31,13.1,29,13.1z"/>
<path id="XMLID_7_" class="st0" d="M78.4,29.9c-1.4-5.5-4-9.9-9.6-9.9H62v8.9C62,35.4,55.9,41,49.5,41H30.3C25,41,21,45.5,21,50.7
	v18.2c0,5.2,4.3,8.2,9.4,9.7c6.1,1.8,11.8,2.1,19.1,0c4.9-1.4,9.5-4.2,9.5-9.7V62H40v-3h19.1h9.6c5.6,0,7.7-3.9,9.6-9.7
	C80.4,43.3,80.3,37.6,78.4,29.9z M50.7,66.4c2,0,3.6,1.6,3.6,3.6c0,2-1.6,3.6-3.6,3.6c-2,0-3.6-1.6-3.6-3.6
	C47.1,68.1,48.7,66.4,50.7,66.4z"/>
</svg>
