<?xml version="1.0" encoding="utf-8"?>
<!-- Generator: Adobe Illustrator 19.0.0, SVG Export Plug-In . SVG Version: 6.00 Build 0)  -->
<svg version="1.1" id="Layer_1" xmlns="http://www.w3.org/2000/svg" xmlns:xlink="http://www.w3.org/1999/xlink" x="0px" y="0px"
	 viewBox="0 0 80 80" style="enable-background:new 0 0 80 80;" xml:space="preserve">
<style type="text/css">
	.st0{fill:#FFFFFF;}
</style>
<path id="XMLID_4_" class="st0" d="M48.5,4.7c-5.9-1-12.2-0.9-17.1,0c-7.3,1.3-8.5,4-8.5,8.9v6.6H40V22H22.5H16
	c-5,0-9.5,3.2-10.8,8.9c-1.6,6.6-1.6,10.6,0,17.5c1.2,5,4.1,8.7,9.2,8.7h5.8v-7.7c0-5.7,5.1-10.3,11.1-10.3h17.4
	c4.9,0,8.6-4.3,8.6-9.1V13.6C57.1,8.9,53.2,5.4,48.5,4.7z M30.1,15.8c-1.8,0-3.2-1.4-3.2-3.2s1.4-3.2,3.2-3.2c1.8,0,3.2,1.4,3.2,3.2
	C33.4,14.3,31.9,15.8,30.1,15.8z"/>
<path id="XMLID_7_" class="st0" d="M74.6,30.9C73.3,26,71,22,65.9,22h-6.1v8c0,5.9-5.5,10.9-11.3,10.9H31.3c-4.8,0-8.4,4.1-8.4,8.7
	V66c0,4.7,3.9,7.4,8.5,8.7c5.5,1.6,10.6,1.9,17.2,0c4.4-1.3,8.6-3.8,8.6-8.7v-6.2H40v-2.7h17.2h8.6c5,0,6.9-3.5,8.6-8.7
	C76.4,43,76.3,37.8,74.6,30.9z M49.6,63.8c1.8,0,3.2,1.4,3.2,3.2s-1.4,3.2-3.2,3.2c-1.8,0-3.2-1.4-3.2-3.2
	C46.4,65.3,47.8,63.8,49.6,63.8z"/>
</svg>
