<?xml version="1.0" encoding="utf-8"?>
<!-- Generator: Adobe Illustrator 19.0.0, SVG Export Plug-In . SVG Version: 6.00 Build 0)  -->
<svg version="1.1" id="Layer_1" xmlns="http://www.w3.org/2000/svg" xmlns:xlink="http://www.w3.org/1999/xlink" x="0px" y="0px"
	 viewBox="0 0 80 80" style="enable-background:new 0 0 80 80;" xml:space="preserve">
<style type="text/css">
	.st0{fill:#FFFFFF;}
	.st1{fill:none;stroke:#FFFFFF;stroke-width:3;stroke-miterlimit:10;}
</style>
<path id="XMLID_8_" class="st0" d="M53.5,10.5c-0.3,0-0.6,0-0.8,0.1l0,0l0,0c0.2,0.3,0.5,0.6,0.7,0.8c0.2,0.3,0.3,0.7,0.5,1l0,0
	c0.3-0.2,0.4-0.5,0.4-1c-0.1-0.1-0.1-0.3-0.2-0.4C53.9,10.8,53.7,10.7,53.5,10.5"/>
<circle class="st0" cx="40" cy="39.9" r="6.1"/>
<path class="st1" d="M40,27.6c8.1,0,15.7,1.2,21.4,3.1c6.9,2.4,11.1,5.9,11.1,9.2c0,3.4-4.5,7.2-11.8,9.6C55,51.3,47.7,52.3,40,52.3
	c-7.9,0-15.4-0.9-21-2.8C11.9,47,7.6,43.2,7.6,39.9c0-3.2,4-6.8,10.8-9.1C24.1,28.8,31.8,27.6,40,27.6L40,27.6z"/>
<path class="st1" d="M29.3,33.8c4.1-7,8.8-13,13.4-16.9c5.5-4.8,10.7-6.6,13.5-5c2.9,1.7,4,7.5,2.4,15.1c-1.2,5.7-4,12.6-7.9,19.3
	c-4,6.9-8.5,12.9-13,16.8c-5.7,5-11.1,6.7-14,5.1c-2.8-1.6-3.8-6.9-2.5-13.9C22.4,48.2,25.2,40.9,29.3,33.8L29.3,33.8z"/>
<path class="st1" d="M29.3,46.1c-4.1-7-6.8-14.1-8-20.1c-1.4-7.1-0.4-12.6,2.4-14.2c2.9-1.7,8.5,0.3,14.3,5.4
	c4.4,3.9,8.9,9.8,12.8,16.4c4,6.8,6.9,13.8,8.1,19.6c1.5,7.4,0.3,13-2.6,14.7c-2.8,1.6-7.9-0.1-13.3-4.8
	C38.3,59.3,33.4,53.2,29.3,46.1L29.3,46.1z"/>
</svg>
