<?xml version="1.0" encoding="utf-8"?>
<!-- Generator: Adobe Illustrator 19.0.0, SVG Export Plug-In . SVG Version: 6.00 Build 0)  -->
<svg version="1.1" id="Layer_1" xmlns="http://www.w3.org/2000/svg" xmlns:xlink="http://www.w3.org/1999/xlink" x="0px" y="0px"
	 viewBox="0 0 80 80" style="enable-background:new 0 0 80 80;" xml:space="preserve">
<style type="text/css">
	.st0{fill:#FFFFFF;}
</style>
<path id="XMLID_7_" class="st0" d="M68.1,42.2c-2.7,0-5.1,0.7-7,1.6c-0.7-1.4-1.4-2.7-1.6-3.6c-0.1-1.1-0.3-1.8-0.1-3.1
	c0.2-1.3,0.9-3.2,0.9-3.3c0-0.1-0.2-0.8-1.7-0.8c-1.6,0-2.9,0.3-3.1,0.7c-0.2,0.4-0.5,1.3-0.6,2.3c-0.3,1.4-3.1,6.5-4.7,9.1
	c-0.5-1-1-1.9-1.1-2.7c-0.1-1.1-0.3-1.8-0.1-3.1c0.2-1.3,0.9-3.2,0.9-3.3c0-0.1-0.2-0.8-1.7-0.8c-1.6,0-2.9,0.3-3.1,0.7
	c-0.2,0.4-0.3,1.4-0.6,2.3c-0.3,0.9-4.1,9.4-5.1,11.6c-0.5,1.1-0.9,2-1.3,2.6c0,0,0,0,0,0s0,0-0.1,0.1c-0.3,0.5-0.4,0.8-0.4,0.8
	s0,0,0,0c-0.2,0.4-0.4,0.7-0.5,0.7c-0.1,0-0.2-1,0-2.4c0.6-2.9,1.9-7.5,1.9-7.7c0-0.1,0.3-0.9-0.9-1.3c-1.1-0.4-1.5,0.3-1.6,0.3
	c-0.1,0-0.2,0.2-0.2,0.2s1.2-5.1-2.3-5.1c-2.2,0-5.3,2.4-6.9,4.7c-1,0.5-3,1.7-5.2,2.9c-0.8,0.5-1.7,0.9-2.5,1.4
	c-0.1-0.1-0.1-0.1-0.2-0.2c-4.3-4.6-12.4-7.9-12-14.1c0.1-2.3,0.9-8.2,15.4-15.4c11.9-5.9,21.4-4.3,23-0.7
	c2.3,5.2-5.1,14.7-17.4,16.1c-4.7,0.5-7.2-1.3-7.8-2c-0.6-0.7-0.7-0.7-1-0.6c-0.4,0.2-0.1,0.8,0,1.2c0.4,1,1.9,2.7,4.5,3.5
	c2.3,0.7,7.8,1.2,14.5-1.4c7.5-2.9,13.3-10.9,11.6-17.7c-1.7-6.8-13.1-9.1-23.8-5.3c-6.4,2.3-13.3,5.8-18.3,10.5
	c-5.9,5.5-6.9,10.3-6.5,12.3c1.4,7.1,11.2,11.8,15.2,15.2c-0.2,0.1-0.4,0.2-0.5,0.3c-2,1-9.5,4.9-11.4,9.1c-2.1,4.7,0.3,8.1,2,8.5
	c5.1,1.4,10.3-1.1,13-5.3c2.8-4.2,2.4-9.6,1.2-12.1c0,0,0-0.1,0-0.1c0.5-0.3,1-0.6,1.5-0.9c1-0.6,2-1.1,2.8-1.6
	c-0.5,1.3-0.8,2.9-1,5.2c-0.2,2.7,0.9,6.1,2.3,7.5c0.6,0.6,1.4,0.6,1.9,0.6c1.7,0,2.4-1.4,3.3-3c1-2,1.9-4.4,1.9-4.4s-1.1,6.3,2,6.3
	c1.1,0,2.3-1.5,2.8-2.2c0,0,0,0,0,0s0,0,0.1-0.1c0.1-0.2,0.2-0.3,0.2-0.3s0,0,0,0c0.5-0.8,1.5-2.6,3-5.6c2-3.8,3.8-8.7,3.8-8.7
	s0.2,1.2,0.7,3.1c0.3,1.1,1.1,2.4,1.6,3.6c-0.5,0.6-0.7,1-0.7,1s0,0,0,0c-0.4,0.5-0.8,1-1.2,1.5c-1.5,1.8-3.4,3.9-3.6,4.6
	c-0.3,0.7-0.2,1.2,0.3,1.7c0.4,0.3,1.1,0.4,1.9,0.3c1.4-0.1,2.4-0.4,2.9-0.6c0.8-0.3,1.6-0.7,2.5-1.3c1.5-1.1,2.4-2.7,2.3-4.8
	c0-1.2-0.4-2.3-0.9-3.4c0.1-0.2,0.3-0.4,0.4-0.6c2.4-3.5,4.3-7.3,4.3-7.3s0.2,1.2,0.7,3.1c0.3,1,0.9,2.1,1.4,3.1
	c-2.3,1.8-3.6,4-4.1,5.3c-0.9,2.6-0.2,3.7,1.1,4c0.6,0.1,1.4-0.2,2.1-0.4c0.8-0.3,1.7-0.7,2.6-1.3c1.5-1.1,3-2.7,2.9-4.8
	c0-1-0.3-1.9-0.7-2.8c1.9-0.8,4.4-1.2,7.5-0.9c6.8,0.8,8.1,5,7.8,6.8c-0.3,1.8-1.7,2.7-2.1,3c-0.5,0.3-0.6,0.4-0.6,0.6
	c0.1,0.3,0.3,0.3,0.7,0.2c0.6-0.1,3.5-1.4,3.7-4.7C79,46.7,75.1,42.2,68.1,42.2z M16,59.8c-2.2,2.4-5.4,3.4-6.7,2.6
	c-1.4-0.8-0.9-4.4,1.9-7c1.7-1.6,3.8-3,5.3-3.9c0.3-0.2,0.8-0.5,1.4-0.8c0.1-0.1,0.2-0.1,0.2-0.1l0,0c0.1-0.1,0.2-0.1,0.3-0.2
	C19.3,54,18.4,57.2,16,59.8z M32.3,48.7c-0.8,1.9-2.4,6.8-3.4,6.5c-0.9-0.2-1.4-3.9-0.2-7.6c0.6-1.8,1.9-4,2.7-4.9
	c1.2-1.4,2.6-1.8,2.9-1.3C34.7,42.2,32.8,47.5,32.3,48.7z M45.8,55.1c-0.3,0.2-0.6,0.3-0.8,0.2c-0.1-0.1,0.1-0.3,0.1-0.3
	s1.7-1.8,2.3-2.6c0.4-0.5,0.8-1,1.3-1.7c0,0.1,0,0.1,0,0.2C48.8,53.1,46.7,54.5,45.8,55.1z M56.1,52.8c-0.2-0.2-0.2-0.7,0.6-2.5
	c0.3-0.7,1-1.9,2.3-3c0.1,0.5,0.2,0.9,0.2,1.3C59.3,51.3,57.3,52.3,56.1,52.8z"/>
</svg>
