<?xml version="1.0" encoding="utf-8"?>
<!-- Generator: Adobe Illustrator 19.0.0, SVG Export Plug-In . SVG Version: 6.00 Build 0)  -->
<svg version="1.1" id="Layer_1" xmlns="http://www.w3.org/2000/svg" xmlns:xlink="http://www.w3.org/1999/xlink" x="0px" y="0px"
	 viewBox="0 0 80 80" style="enable-background:new 0 0 80 80;" xml:space="preserve">
<style type="text/css">
	.st0{fill:#FFFFFF;}
</style>
<g>
	<path class="st0" d="M20,32c-3.6,0-7.1-0.2-10.6-1.1c-1.1-0.3-2.2-0.7-3.2-1.2c-0.8-0.4-1.2-1.1-1.2-2c0-2.4,0-4.9,0-7.3
		c0-0.9,0.3-1.5,1.1-1.8c1.2-0.4,2.4-0.8,3.7-1c4.9-0.9,9.9-1.1,14.8-0.7c2.6,0.2,5.2,0.7,7.7,1.2c0.6,0.1,1.1,0.4,1.7,0.6
		c0.6,0.2,0.9,0.7,0.9,1.4c0,2.7,0,5.4,0,8.1c0,0.7-0.4,1.3-1.1,1.6c-1.1,0.5-2.2,1-3.3,1.3C27.1,31.8,23.5,32,20,32z M7.5,24.8
		c-0.3-0.2-0.5-0.4-0.6-0.3c-0.1,0-0.3,0.3-0.3,0.4c0,0.1,0.2,0.3,0.4,0.3C7.1,25.2,7.2,25,7.5,24.8z"/>
	<path class="st0" d="M5.7,43.4c2,1.3,4.3,1.7,6.6,2c4.1,0.6,8.3,0.6,12.5,0.3c2.8-0.2,5.5-0.5,8.1-1.6c0.4-0.2,0.8-0.4,1.2-0.6
		c0.4-0.3,0.6-0.1,0.7,0.2c0.1,0.3,0.2,0.7,0.2,1c0,2.6,0,5.2,0,7.8c0,0.7-0.3,1.2-0.9,1.6c-1.2,0.8-2.5,1.2-3.9,1.5
		c-4.4,0.9-8.8,1.1-13.2,0.9c-2.4-0.1-4.7-0.5-7.1-0.9c-1.2-0.2-2.4-0.8-3.6-1.3C5.4,53.9,5,53.2,5,52.1c0.1-2.5,0-4.9,0-7.4
		C5,44.2,5.2,43.7,5.7,43.4z M7.3,48.9C7.2,49.2,7,49.3,7,49.5c0,0.1,0.3,0.4,0.4,0.3c0.1,0,0.3-0.2,0.3-0.4
		C7.8,49.3,7.6,49.1,7.3,48.9z"/>
	<path class="st0" d="M5.6,31c2.2,1.5,4.8,1.9,7.4,2.2c4.3,0.6,8.7,0.5,13,0.1c2.3-0.2,4.7-0.6,6.9-1.5c0.5-0.2,1-0.6,1.6-0.9
		c0.4,0.2,0.5,0.7,0.5,1.1c0,2.7,0,5.4,0,8.1c0,0.7-0.4,1.1-0.9,1.5c-1.3,0.9-2.8,1.3-4.3,1.6c-3.8,0.8-7.7,0.9-11.5,0.8
		c-3.1-0.1-6.1-0.3-9.1-1.1c-1.1-0.3-2.2-0.8-3.2-1.3c-0.7-0.3-1-1-0.9-1.8c0-2.5,0-5,0-7.5C5,31.8,5.1,31.3,5.6,31z M8,37.5
		c-0.3-0.2-0.4-0.4-0.6-0.4c-0.1,0-0.4,0.2-0.4,0.4c0,0.1,0.2,0.4,0.4,0.4C7.5,37.8,7.7,37.7,8,37.5z"/>
	<path class="st0" d="M62.3,52c0.7,0.5,1.4,0.9,2.1,1.3c-0.6,1-1.1,2-1.7,3c-1.1-0.7-2.2-1.4-3.3-2.2c-0.4-0.3-0.8-0.4-1.3-0.3
		c-3.5,0.6-6.3-1.7-6.6-5.3c-0.1-0.8-0.1-1.7-0.1-2.5c0-3.5,0-7.1,0-10.6c0-1.2,0.2-2.4,0.6-3.5c0.6-1.3,1.6-2.2,2.9-2.7
		c1.7-0.6,3.4-0.6,5.1,0c2.1,0.7,3.1,2.4,3.4,4.5c0.1,0.6,0.1,1.3,0.1,1.9c0,3.8,0,7.5,0,11.3C63.7,48.7,63.4,50.5,62.3,52z
		 M58.6,41.4c0-2,0-3.9,0-5.9c0-0.5,0-1-0.2-1.4c-0.1-0.3-0.5-0.6-0.8-0.6c-0.3,0-0.7,0.2-0.9,0.4c-0.2,0.3-0.3,0.8-0.3,1.2
		c0,4.1,0,8.2,0,12.3c0,0.4,0.1,0.9,0.2,1.3c0.1,0.5,0.5,0.6,1,0.6c0.4,0,0.7-0.3,0.8-0.7c0.1-0.6,0.2-1.1,0.2-1.7
		C58.6,45.1,58.6,43.3,58.6,41.4z"/>
	<path class="st0" d="M38.2,44.5c1.7,0,3.2,0,4.9,0c0,0.3,0,0.5,0,0.7c0,1,0,2.1,0.1,3.1c0.1,0.7,0.5,1,1.1,1c0.6,0,0.9-0.3,1-1
		c0.2-1.6-0.1-3.1-1.3-4.3c-1.3-1.2-2.5-2.5-3.7-3.8C38,37.8,37.7,35,38.8,32c0.6-1.7,1.8-2.6,3.6-3c1.3-0.3,2.7-0.2,4,0.2
		c1.8,0.5,2.9,1.7,3.3,3.4c0.3,1,0.3,2.1,0.5,3.2c0,0.1-0.2,0.4-0.3,0.4c-1.6,0-3.1,0-4.8,0c0-0.6,0-1.1,0-1.6
		c0-0.8-0.4-1.1-1.1-1.1c-0.7,0-1,0.4-1,1.2c0,0.8,0.4,1.4,1,2c1.2,1.2,2.3,2.3,3.5,3.4c1.3,1.3,2.4,2.8,2.7,4.7
		c0.3,2.2,0.2,4.3-0.7,6.3c-0.6,1.5-1.8,2.4-3.4,2.7c-1.6,0.3-3.2,0.2-4.7-0.4c-1.4-0.5-2.3-1.6-2.7-3c-0.2-0.9-0.4-1.9-0.5-2.9
		C38.1,46.5,38.2,45.6,38.2,44.5z"/>
	<path class="st0" d="M70.9,49.5c1.7,0,3.3,0,5,0c0,0.6,0,1.3,0,1.9c0,0.6,0,1.3,0,1.9c0,0.3-0.1,0.5-0.5,0.5c-3.1,0-6.1,0-9.2,0
		c-0.3,0-0.4-0.1-0.4-0.4c0-0.5,0-0.9,0-1.4c0-7.3,0-14.7,0-22c0-0.7,0-0.7,0.8-0.7c1.2,0,2.4,0,3.6,0c0.5,0,0.7,0.2,0.7,0.7
		c0,6.3,0,12.6,0,18.9C70.9,48.9,70.9,49.1,70.9,49.5z"/>
</g>
</svg>
