<svg id="Layer_1" data-name="Layer 1" xmlns="http://www.w3.org/2000/svg" viewBox="0 0 81.9 81.9">
  <defs>
    <style>
      .cls-1 {
        fill: #fff;
      }
    </style>
  </defs>
  <title>wordpress-white</title>
  <g>
    <path class="cls-1" d="M4.8,40A35.2,35.2,0,0,0,24.6,71.6L7.9,25.6A34.8,34.8,0,0,0,4.8,40Z" transform="translate(1 1)"/>
    <path class="cls-1" d="M63.7,38.2a18.6,18.6,0,0,0-2.9-9.7c-1.8-2.9-3.5-5.4-3.5-8.3A6.1,6.1,0,0,1,63.2,14h.5a35.1,35.1,0,0,0-53.1,6.7h2.3c3.6,0,9.3-.5,9.3-.5a1.5,1.5,0,0,1,.2,2.9s-1.9.3-4,.4l12.8,38,7.7-23-5.5-15c-1.9-.1-3.7-.4-3.7-.4-1.8-.1-1.6-3,.3-2.9,0,0,5.8.5,9.2.5s9.4-.5,9.4-.5a1.5,1.5,0,0,1,.2,2.9s-1.9.3-4,.4L57.5,61.3,61,49.5C62.5,44.7,63.7,41.2,63.7,38.2Z" transform="translate(1 1)"/>
    <path class="cls-1" d="M40.6,43,30,73.7a36.6,36.6,0,0,0,10,1.4,34.5,34.5,0,0,0,11.6-2,.8.8,0,0,1-.2-.5Z" transform="translate(1 1)"/>
    <path class="cls-1" d="M70.8,23.1c.1,1.1.2,2.3.2,3.6a32.9,32.9,0,0,1-2.6,12.6l-10.8,31A35.1,35.1,0,0,0,70.8,23.1Z" transform="translate(1 1)"/>
    <path class="cls-1" d="M40-1A41,41,0,1,0,80.9,40,41.1,41.1,0,0,0,40-1Zm0,80A39.1,39.1,0,1,1,79,40,39.1,39.1,0,0,1,40,79Z" transform="translate(1 1)"/>
  </g>
</svg>
