<?xml version="1.0" encoding="utf-8"?>
<!-- Generator: Adobe Illustrator 19.0.0, SVG Export Plug-In . SVG Version: 6.00 Build 0)  -->
<svg version="1.1" id="Layer_1" xmlns="http://www.w3.org/2000/svg" xmlns:xlink="http://www.w3.org/1999/xlink" x="0px" y="0px"
	 viewBox="0 0 100 100" style="enable-background:new 0 0 100 100;" xml:space="preserve">
<style type="text/css">
	.st0{fill:#3B3B98;stroke:#FFFFFF;stroke-miterlimit:10;}
	.st1{fill:none;}
</style>
<g id="Layer_2">
	<path id="XMLID_6_" class="st0" d="M50,0.9C22.9,0.9,0.9,22.9,0.9,50S22.8,99.1,50,99.1S99.1,77.2,99.1,50S77.1,0.9,50,0.9z
		 M50,67.1c-9.5,0-17.1-7.7-17.1-17.1S40.5,32.9,50,32.9S67.1,40.5,67.1,50S59.5,67.1,50,67.1z"/>
</g>
<g id="Layer_1_1_">
	<path id="XMLID_x5F_2_x5F_" class="st1" d="M71.2,32.2c9.8,11.8,8.2,29.3-3.5,39.1s-29.3,8.2-39.1-3.5s-8.2-29.3,3.5-39.1
		S61.5,20.4,71.2,32.2z"/>
</g>
</svg>
