<?xml version="1.0" encoding="utf-8"?>
<!-- Generator: Adobe Illustrator 19.0.0, SVG Export Plug-In . SVG Version: 6.00 Build 0)  -->
<svg version="1.1" id="Layer_1" xmlns="http://www.w3.org/2000/svg" xmlns:xlink="http://www.w3.org/1999/xlink" x="0px" y="0px"
	 viewBox="0 0 90 90" style="enable-background:new 0 0 90 90;" xml:space="preserve">
<style type="text/css">
	.st0{fill:#3B3B98;stroke:#FFFFFF;stroke-miterlimit:10;}
	.st1{fill:none;}
</style>
<g id="Layer_2">
	<path id="XMLID_6_" class="st0" d="M45,1C20.7,1,1,20.7,1,45s19.6,44,44,44s44-19.6,44-44S69.3,1,45,1z M45,60.3
		c-8.5,0-15.3-6.9-15.3-15.3S36.5,29.7,45,29.7S60.3,36.5,60.3,45S53.5,60.3,45,60.3z"/>
</g>
<g id="Layer_1_1_">
	<path id="XMLID_x5F_2_x5F_" class="st1" d="M63.9,29.1c8.7,10.5,7.3,26.2-3.1,34.9s-26.2,7.3-34.9-3.1S18.6,34.7,29,26
		S55.3,18.6,63.9,29.1z"/>
</g>
</svg>
