<?xml version="1.0" encoding="utf-8"?>
<!-- Generator: Adobe Illustrator 19.0.0, SVG Export Plug-In . SVG Version: 6.00 Build 0)  -->
<svg version="1.1" xmlns="http://www.w3.org/2000/svg" xmlns:xlink="http://www.w3.org/1999/xlink" x="0px" y="0px"
	 viewBox="0 0 90 90" style="enable-background:new 0 0 90 90;" xml:space="preserve">
<style type="text/css">
	.st0{fill:#B33771;stroke:#FFFFFF;stroke-miterlimit:10;}
	.st1{fill:none;}
</style>
<g id="Layer_3">
</g>
<g id="Layer_2">
	<path id="XMLID_6_" class="st0" d="M45,2C21.3,2,2,21.3,2,45s19.2,43,43,43s43-19.2,43-43S68.7,2,45,2z M45,62.1
		c-9.5,0-17.1-7.7-17.1-17.1S35.5,27.9,45,27.9S62.1,35.5,62.1,45S54.5,62.1,45,62.1z"/>
</g>
<g id="Layer_1">
	<path id="XMLID_x5F_2_x5F_" class="st1" d="M64.2,28.9c8.9,10.7,7.4,26.5-3.2,35.4s-26.5,7.4-35.4-3.2s-7.4-26.5,3.2-35.4
		S55.4,18.2,64.2,28.9z"/>
	<text id="XMLID_19_">	<textPath  xlink:href="#XMLID_x5F_2_x5F_" startOffset="100%">
<tspan  style="fill:#FFFFFF; font-family:'Roboto-Bold'; font-size:13px;"> CREA  --- CREA ---  CREA ---</tspan>	</textPath>
</text>
</g>
</svg>
